<svg width="100" height="100" viewBox="0 0 200 200" fill="none" xmlns="http://www.w3.org/2000/svg">
<circle cx="100" cy="100" r="100" fill="#99C997"/>
<path d="M82.7232 104.195C82.0432 104.195 81.5182 104.12 81.1482 103.97C80.7782 103.82 80.5232 103.61 80.3832 103.34C80.2432 103.07 80.1732 102.75 80.1732 102.38C80.1732 102.2 80.1882 102 80.2182 101.78C80.2482 101.55 80.2832 101.29 80.3232 101C80.5032 99.9 80.5932 98.925 80.5932 98.075C80.5932 97.515 80.5682 97.04 80.5182 96.65C80.4782 96.25 80.3482 95.87 80.1282 95.51C80.0882 95.45 80.0532 95.39 80.0232 95.33C79.9932 95.26 79.9782 95.205 79.9782 95.165C79.9782 95.045 80.0482 94.92 80.1882 94.79C80.3282 94.66 80.4982 94.55 80.6982 94.46C80.8982 94.37 81.0882 94.325 81.2682 94.325C81.6082 94.325 81.8182 94.46 81.8982 94.73C81.9882 95 82.0332 95.385 82.0332 95.885C82.0332 96.075 82.0132 96.38 81.9732 96.8C81.9332 97.21 81.8732 97.735 81.7932 98.375C81.7132 98.995 81.6532 99.53 81.6132 99.98C81.5732 100.43 81.5532 100.79 81.5532 101.06C81.5532 101.46 81.5982 101.765 81.6882 101.975C81.7882 102.175 81.9482 102.315 82.1682 102.395C82.3882 102.475 82.6982 102.515 83.0982 102.515C83.5282 102.515 83.9382 102.48 84.3282 102.41C84.7182 102.33 85.0982 102.21 85.4682 102.05C85.5182 102.03 85.5632 102.015 85.6032 102.005C85.6432 101.995 85.6782 101.99 85.7082 101.99C85.7982 101.99 85.8832 102.045 85.9632 102.155C86.0432 102.265 86.0832 102.42 86.0832 102.62C86.0832 103.06 85.8432 103.405 85.3632 103.655C84.7232 104.015 83.8432 104.195 82.7232 104.195ZM93.9405 104.165C93.6305 104.165 93.3655 104.035 93.1455 103.775C92.9355 103.505 92.7305 103.065 92.5305 102.455C92.4305 102.155 92.3455 101.865 92.2755 101.585C92.2155 101.295 92.1705 101.015 92.1405 100.745C92.0105 100.945 91.8905 101.08 91.7805 101.15C91.6805 101.21 91.5305 101.24 91.3305 101.24C90.8405 101.24 90.3205 101.235 89.7705 101.225C89.2205 101.205 88.7305 101.19 88.3005 101.18C88.2805 101.36 88.2605 101.545 88.2405 101.735C88.2305 101.915 88.2255 102.095 88.2255 102.275C88.2255 102.435 88.2305 102.595 88.2405 102.755C88.2605 102.915 88.2755 103.07 88.2855 103.22C88.3155 103.5 88.2055 103.725 87.9555 103.895C87.7055 104.065 87.3955 104.15 87.0255 104.15C86.7055 104.15 86.5455 104.01 86.5455 103.73C86.5455 103.56 86.5905 103.305 86.6805 102.965C86.7305 102.735 86.7705 102.54 86.8005 102.38C86.8305 102.21 86.8455 102.075 86.8455 101.975C86.8455 101.695 86.7605 101.505 86.5905 101.405C86.4505 101.325 86.3805 101.22 86.3805 101.09C86.3805 100.97 86.4055 100.825 86.4555 100.655C86.5155 100.485 86.5905 100.33 86.6805 100.19C86.7705 100.04 86.8555 99.935 86.9355 99.875C87.0055 99.835 87.0905 99.8 87.1905 99.77C87.2905 99.74 87.4155 99.72 87.5655 99.71C87.9555 98.59 88.3905 97.625 88.8705 96.815C89.3605 95.995 89.8805 95.365 90.4305 94.925C90.9805 94.475 91.5405 94.25 92.1105 94.25C92.4605 94.25 92.7155 94.37 92.8755 94.61C93.0355 94.84 93.1155 95.23 93.1155 95.78V96.455C93.1155 97.465 93.1905 98.395 93.3405 99.245C93.4905 100.095 93.6755 100.785 93.8955 101.315C94.1155 101.875 94.4205 102.335 94.8105 102.695C94.9305 102.795 95.0105 102.885 95.0505 102.965C95.0905 103.035 95.1105 103.11 95.1105 103.19C95.1105 103.34 95.0505 103.49 94.9305 103.64C94.8205 103.79 94.6755 103.915 94.4955 104.015C94.3155 104.115 94.1305 104.165 93.9405 104.165ZM88.7505 99.62C89.2405 99.6 89.6705 99.585 90.0405 99.575C90.4105 99.555 90.7205 99.545 90.9705 99.545H92.0205C92.0005 99.265 91.9805 98.97 91.9605 98.66C91.9505 98.35 91.9455 98.025 91.9455 97.685V96.815C91.9455 96.525 91.9105 96.335 91.8405 96.245C91.7805 96.145 91.6605 96.095 91.4805 96.095C90.9905 96.095 90.5005 96.415 90.0105 97.055C89.5205 97.695 89.1005 98.55 88.7505 99.62ZM96.89 104.15C96.77 104.15 96.645 104.13 96.515 104.09C96.395 104.05 96.295 103.955 96.215 103.805C96.135 103.655 96.095 103.425 96.095 103.115C96.095 102.915 96.11 102.66 96.14 102.35C96.18 102.03 96.22 101.72 96.26 101.42C96.34 100.92 96.41 100.37 96.47 99.77C96.54 99.17 96.575 98.575 96.575 97.985C96.575 97.775 96.57 97.555 96.56 97.325C96.55 97.095 96.53 96.875 96.5 96.665C96.44 96.695 96.37 96.725 96.29 96.755C96.22 96.775 96.16 96.785 96.11 96.785C96.01 96.785 95.94 96.735 95.9 96.635C95.87 96.525 95.855 96.4 95.855 96.26C95.855 95.94 95.93 95.685 96.08 95.495C96.24 95.295 96.475 95.115 96.785 94.955C97.195 94.725 97.63 94.56 98.09 94.46C98.56 94.35 99.005 94.295 99.425 94.295C100.045 94.295 100.595 94.405 101.075 94.625C101.555 94.845 101.93 95.155 102.2 95.555C102.47 95.955 102.605 96.435 102.605 96.995C102.605 97.575 102.465 98.09 102.185 98.54C101.915 98.99 101.565 99.36 101.135 99.65C100.715 99.93 100.285 100.115 99.845 100.205C100.005 100.455 100.175 100.705 100.355 100.955C100.545 101.205 100.735 101.43 100.925 101.63C101.495 102.22 102.075 102.515 102.665 102.515C102.825 102.515 102.965 102.505 103.085 102.485C103.145 102.475 103.195 102.5 103.235 102.56C103.285 102.61 103.31 102.715 103.31 102.875C103.31 103.065 103.27 103.26 103.19 103.46C103.11 103.65 102.975 103.81 102.785 103.94C102.595 104.07 102.335 104.135 102.005 104.135C101.615 104.135 101.24 104.005 100.88 103.745C100.53 103.485 100.205 103.155 99.905 102.755C99.605 102.345 99.335 101.915 99.095 101.465C98.865 101.015 98.67 100.6 98.51 100.22C98.47 100.11 98.435 100.005 98.405 99.905C98.375 99.795 98.36 99.69 98.36 99.59C98.36 99.42 98.415 99.28 98.525 99.17C98.605 99.09 98.715 99.035 98.855 99.005C99.005 98.975 99.22 98.96 99.5 98.96C100.03 98.96 100.46 98.815 100.79 98.525C101.12 98.235 101.285 97.86 101.285 97.4C101.285 96.9 101.095 96.535 100.715 96.305C100.345 96.075 99.89 95.96 99.35 95.96C98.91 95.96 98.45 96.03 97.97 96.17C97.94 96.82 97.87 97.565 97.76 98.405C97.7 98.905 97.645 99.4 97.595 99.89C97.555 100.38 97.535 100.825 97.535 101.225C97.535 101.575 97.565 101.885 97.625 102.155C97.695 102.415 97.83 102.64 98.03 102.83C98.17 102.97 98.24 103.12 98.24 103.28C98.24 103.5 98.115 103.7 97.865 103.88C97.615 104.06 97.29 104.15 96.89 104.15ZM107.894 104.195C107.204 104.195 106.584 104.04 106.034 103.73C105.484 103.42 105.049 102.97 104.729 102.38C104.409 101.79 104.249 101.075 104.249 100.235C104.249 99.475 104.374 98.745 104.624 98.045C104.884 97.335 105.249 96.7 105.719 96.14C106.189 95.57 106.759 95.12 107.429 94.79C108.099 94.46 108.844 94.295 109.664 94.295C110.264 94.295 110.764 94.39 111.164 94.58C111.564 94.77 111.764 95.05 111.764 95.42C111.764 95.6 111.714 95.78 111.614 95.96C111.524 96.13 111.404 96.275 111.254 96.395C111.104 96.515 110.949 96.575 110.789 96.575C110.689 96.575 110.609 96.55 110.549 96.5C110.029 96.15 109.439 95.975 108.779 95.975C108.079 95.975 107.489 96.14 107.009 96.47C106.529 96.79 106.164 97.215 105.914 97.745C105.674 98.275 105.554 98.85 105.554 99.47C105.554 100.4 105.814 101.14 106.334 101.69C106.864 102.24 107.569 102.515 108.449 102.515C108.829 102.515 109.184 102.46 109.514 102.35C109.844 102.24 110.114 102.08 110.324 101.87C110.534 101.66 110.639 101.405 110.639 101.105C110.639 100.805 110.549 100.575 110.369 100.415C110.189 100.255 109.954 100.14 109.664 100.07C109.374 99.99 109.059 99.94 108.719 99.92C108.479 99.9 108.299 99.87 108.179 99.83C108.069 99.79 108.014 99.67 108.014 99.47C108.014 99.23 108.089 99.03 108.239 98.87C108.389 98.71 108.574 98.62 108.794 98.6C109.094 98.57 109.454 98.55 109.874 98.54C110.294 98.52 110.729 98.51 111.179 98.51C111.639 98.5 112.069 98.495 112.469 98.495C112.599 98.495 112.699 98.52 112.769 98.57C112.839 98.61 112.874 98.7 112.874 98.84C112.874 99.01 112.834 99.195 112.754 99.395C112.684 99.595 112.584 99.765 112.454 99.905C112.324 100.045 112.174 100.115 112.004 100.115H111.764C111.794 100.215 111.819 100.33 111.839 100.46C111.869 100.58 111.884 100.72 111.884 100.88C111.884 101.32 111.779 101.74 111.569 102.14C111.359 102.53 111.069 102.88 110.699 103.19C110.329 103.5 109.904 103.745 109.424 103.925C108.944 104.105 108.434 104.195 107.894 104.195ZM116.844 104.195C115.894 104.195 115.189 104.045 114.729 103.745C114.279 103.435 114.054 102.86 114.054 102.02C114.054 101.85 114.064 101.645 114.084 101.405C114.114 101.165 114.154 100.875 114.204 100.535C114.284 100.045 114.344 99.61 114.384 99.23C114.424 98.84 114.444 98.415 114.444 97.955C114.444 97.655 114.434 97.365 114.414 97.085C114.404 96.805 114.379 96.54 114.339 96.29C114.189 96.32 114.089 96.335 114.039 96.335C113.959 96.335 113.904 96.32 113.874 96.29C113.844 96.25 113.829 96.18 113.829 96.08C113.829 95.87 113.854 95.665 113.904 95.465C113.954 95.255 114.024 95.085 114.114 94.955C114.284 94.715 114.544 94.575 114.894 94.535C115.164 94.505 115.494 94.475 115.884 94.445C116.284 94.415 116.689 94.395 117.099 94.385C117.519 94.365 117.894 94.355 118.224 94.355C119.144 94.355 119.689 94.375 119.859 94.415C120.119 94.455 120.249 94.595 120.249 94.835C120.249 95.135 120.144 95.41 119.934 95.66C119.824 95.81 119.714 95.92 119.604 95.99C119.494 96.05 119.339 96.075 119.139 96.065C118.699 96.035 118.314 96.015 117.984 96.005C117.654 95.995 117.424 95.99 117.294 95.99C117.064 95.99 116.824 95.995 116.574 96.005C116.334 96.015 116.089 96.03 115.839 96.05C115.839 96.4 115.824 96.775 115.794 97.175C115.764 97.575 115.724 97.995 115.674 98.435C116.134 98.405 116.654 98.385 117.234 98.375C117.814 98.355 118.329 98.345 118.779 98.345C118.979 98.345 119.114 98.365 119.184 98.405C119.264 98.445 119.304 98.55 119.304 98.72C119.304 98.88 119.259 99.06 119.169 99.26C119.089 99.45 118.979 99.615 118.839 99.755C118.779 99.815 118.714 99.865 118.644 99.905C118.574 99.935 118.479 99.945 118.359 99.935C117.929 99.915 117.439 99.9 116.889 99.89C116.349 99.88 115.874 99.88 115.464 99.89C115.424 100.12 115.394 100.33 115.374 100.52C115.354 100.71 115.344 100.88 115.344 101.03C115.344 101.58 115.484 101.965 115.764 102.185C116.044 102.405 116.504 102.515 117.144 102.515C117.534 102.515 117.909 102.48 118.269 102.41C118.639 102.34 119.014 102.21 119.394 102.02C119.534 101.94 119.639 101.9 119.709 101.9C119.819 101.9 119.924 101.98 120.024 102.14C120.134 102.29 120.189 102.455 120.189 102.635C120.189 102.855 120.104 103.065 119.934 103.265C119.774 103.455 119.559 103.62 119.289 103.76C118.979 103.9 118.609 104.005 118.179 104.075C117.749 104.155 117.304 104.195 116.844 104.195Z" fill="#C6452C"/>
</svg>
