<svg width="75" height="75" viewBox="0 0 150 150" fill="none" xmlns="http://www.w3.org/2000/svg">
<circle cx="75" cy="75" r="75" fill="#99C997"/>
<path d="M50.3137 80.15C50.1237 80.15 49.9937 80.095 49.9237 79.985C49.8537 79.875 49.8187 79.755 49.8187 79.625C49.8187 79.005 49.8787 78.295 49.9987 77.495C50.1287 76.695 50.2837 75.9 50.4637 75.11C50.6237 74.44 50.7987 73.815 50.9887 73.235C51.1887 72.655 51.3637 72.18 51.5137 71.81C51.7337 71.29 51.9837 70.895 52.2637 70.625C52.5537 70.345 52.8887 70.205 53.2687 70.205C53.5487 70.205 53.7987 70.3 54.0187 70.49C54.2387 70.67 54.3687 71 54.4087 71.48C54.4687 72.06 54.5387 72.645 54.6187 73.235C54.6987 73.825 54.7887 74.365 54.8887 74.855C54.9887 75.335 55.0937 75.705 55.2037 75.965C55.2937 76.195 55.4237 76.31 55.5937 76.31C55.7837 76.31 55.9487 76.19 56.0887 75.95C56.2187 75.73 56.3587 75.43 56.5087 75.05C56.6587 74.67 56.8037 74.27 56.9437 73.85C57.0937 73.42 57.2237 73.03 57.3337 72.68C57.4637 72.3 57.6087 71.92 57.7687 71.54C57.9387 71.15 58.1537 70.83 58.4137 70.58C58.6737 70.32 58.9987 70.19 59.3887 70.19C59.7487 70.19 60.0037 70.315 60.1537 70.565C60.3137 70.805 60.3937 71.19 60.3937 71.72C60.3937 72.13 60.3787 72.56 60.3487 73.01C60.3387 73.27 60.3237 73.54 60.3037 73.82C60.2937 74.09 60.2887 74.37 60.2887 74.66C60.2887 75.11 60.3087 75.585 60.3487 76.085C60.3987 76.585 60.4887 77.055 60.6187 77.495C60.7587 77.935 60.9637 78.305 61.2337 78.605C61.3137 78.675 61.3837 78.755 61.4437 78.845C61.5137 78.935 61.5487 79.035 61.5487 79.145C61.5487 79.395 61.4137 79.625 61.1437 79.835C60.8837 80.035 60.5837 80.135 60.2437 80.135C59.9337 80.135 59.7037 80.035 59.5537 79.835C59.4037 79.635 59.2837 79.365 59.1937 79.025C59.0937 78.605 59.0237 78.155 58.9837 77.675C58.9437 77.195 58.9237 76.73 58.9237 76.28C58.9237 75.56 58.9487 74.9 58.9987 74.3C59.0587 73.69 59.0887 73.24 59.0887 72.95C59.0887 72.79 59.0737 72.675 59.0437 72.605C59.0137 72.525 58.9387 72.485 58.8187 72.485C58.6787 72.485 58.5587 72.55 58.4587 72.68C58.3687 72.8 58.2937 72.97 58.2337 73.19C58.1037 73.61 57.9587 74.06 57.7987 74.54C57.6387 75.02 57.4687 75.49 57.2887 75.95C57.1187 76.41 56.9337 76.82 56.7337 77.18C56.5037 77.6 56.2537 77.885 55.9837 78.035C55.7237 78.175 55.4587 78.245 55.1887 78.245C54.7687 78.245 54.4487 78.115 54.2287 77.855C54.0187 77.585 53.8637 77.29 53.7637 76.97C53.6337 76.54 53.5137 75.98 53.4037 75.29C53.2937 74.59 53.2137 73.805 53.1637 72.935C53.1437 72.565 53.0237 72.38 52.8037 72.38C52.5637 72.38 52.3737 72.56 52.2337 72.92C52.1137 73.28 51.9987 73.705 51.8887 74.195C51.7787 74.675 51.6887 75.18 51.6187 75.71C51.5587 76.23 51.5287 76.745 51.5287 77.255C51.5287 77.685 51.5437 78.06 51.5737 78.38C51.6137 78.7 51.6337 79 51.6337 79.28C51.6337 79.48 51.5537 79.645 51.3937 79.775C51.2437 79.905 51.0637 80 50.8537 80.06C50.6437 80.12 50.4637 80.15 50.3137 80.15ZM65.4749 80.195C64.5249 80.195 63.8199 80.045 63.3599 79.745C62.9099 79.435 62.6849 78.86 62.6849 78.02C62.6849 77.85 62.6949 77.645 62.7149 77.405C62.7449 77.165 62.7849 76.875 62.8349 76.535C62.9149 76.045 62.9749 75.61 63.0149 75.23C63.0549 74.84 63.0749 74.415 63.0749 73.955C63.0749 73.655 63.0649 73.365 63.0449 73.085C63.0349 72.805 63.0099 72.54 62.9699 72.29C62.8199 72.32 62.7199 72.335 62.6699 72.335C62.5899 72.335 62.5349 72.32 62.5049 72.29C62.4749 72.25 62.4599 72.18 62.4599 72.08C62.4599 71.87 62.4849 71.665 62.5349 71.465C62.5849 71.255 62.6549 71.085 62.7449 70.955C62.9149 70.715 63.1749 70.575 63.5249 70.535C63.7949 70.505 64.1249 70.475 64.5149 70.445C64.9149 70.415 65.3199 70.395 65.7299 70.385C66.1499 70.365 66.5249 70.355 66.8549 70.355C67.7749 70.355 68.3199 70.375 68.4899 70.415C68.7499 70.455 68.8799 70.595 68.8799 70.835C68.8799 71.135 68.7749 71.41 68.5649 71.66C68.4549 71.81 68.3449 71.92 68.2349 71.99C68.1249 72.05 67.9699 72.075 67.7699 72.065C67.3299 72.035 66.9449 72.015 66.6149 72.005C66.2849 71.995 66.0549 71.99 65.9249 71.99C65.6949 71.99 65.4549 71.995 65.2049 72.005C64.9649 72.015 64.7199 72.03 64.4699 72.05C64.4699 72.4 64.4549 72.775 64.4249 73.175C64.3949 73.575 64.3549 73.995 64.3049 74.435C64.7649 74.405 65.2849 74.385 65.8649 74.375C66.4449 74.355 66.9599 74.345 67.4099 74.345C67.6099 74.345 67.7449 74.365 67.8149 74.405C67.8949 74.445 67.9349 74.55 67.9349 74.72C67.9349 74.88 67.8899 75.06 67.7999 75.26C67.7199 75.45 67.6099 75.615 67.4699 75.755C67.4099 75.815 67.3449 75.865 67.2749 75.905C67.2049 75.935 67.1099 75.945 66.9899 75.935C66.5599 75.915 66.0699 75.9 65.5199 75.89C64.9799 75.88 64.5049 75.88 64.0949 75.89C64.0549 76.12 64.0249 76.33 64.0049 76.52C63.9849 76.71 63.9749 76.88 63.9749 77.03C63.9749 77.58 64.1149 77.965 64.3949 78.185C64.6749 78.405 65.1349 78.515 65.7749 78.515C66.1649 78.515 66.5399 78.48 66.8999 78.41C67.2699 78.34 67.6449 78.21 68.0249 78.02C68.1649 77.94 68.2699 77.9 68.3399 77.9C68.4499 77.9 68.5549 77.98 68.6549 78.14C68.7649 78.29 68.8199 78.455 68.8199 78.635C68.8199 78.855 68.7349 79.065 68.5649 79.265C68.4049 79.455 68.1899 79.62 67.9199 79.76C67.6099 79.9 67.2399 80.005 66.8099 80.075C66.3799 80.155 65.9349 80.195 65.4749 80.195ZM72.1699 80.195C71.7999 80.195 71.4599 80.16 71.1499 80.09C70.8399 80.02 70.5849 79.89 70.3849 79.7C70.2349 79.56 70.1349 79.405 70.0849 79.235C70.0349 79.055 70.0099 78.86 70.0099 78.65C70.0099 78.31 70.0399 77.97 70.0999 77.63C70.1899 77.04 70.2699 76.405 70.3399 75.725C70.4099 75.045 70.4449 74.415 70.4449 73.835C70.4449 73.655 70.4349 73.45 70.4149 73.22C70.4049 72.99 70.3849 72.775 70.3549 72.575C70.2849 72.605 70.2149 72.635 70.1449 72.665C70.0849 72.685 70.0299 72.695 69.9799 72.695C69.8899 72.695 69.8299 72.65 69.7999 72.56C69.7699 72.47 69.7549 72.37 69.7549 72.26C69.7549 71.97 69.8199 71.725 69.9499 71.525C70.0899 71.315 70.3149 71.13 70.6249 70.97C70.9549 70.79 71.3849 70.635 71.9149 70.505C72.4549 70.365 72.9999 70.295 73.5499 70.295C74.7999 70.295 75.7799 70.665 76.4899 71.405C77.2099 72.135 77.5699 73.175 77.5699 74.525C77.5699 75.295 77.4499 76.025 77.2099 76.715C76.9799 77.395 76.6349 78 76.1749 78.53C75.7149 79.05 75.1499 79.46 74.4799 79.76C73.8099 80.05 73.0399 80.195 72.1699 80.195ZM72.6499 78.515C73.0999 78.515 73.5499 78.445 73.9999 78.305C74.4499 78.165 74.8549 77.955 75.2149 77.675C75.5849 77.395 75.8799 77.04 76.0999 76.61C76.3199 76.17 76.4299 75.645 76.4299 75.035C76.4299 74.345 76.2949 73.775 76.0249 73.325C75.7549 72.875 75.3949 72.54 74.9449 72.32C74.4949 72.1 73.9949 71.99 73.4449 71.99C73.1449 71.99 72.8449 72.015 72.5449 72.065C72.2549 72.115 72.0249 72.165 71.8549 72.215C71.8449 72.675 71.8149 73.125 71.7649 73.565C71.7249 73.995 71.6749 74.415 71.6149 74.825C71.5549 75.255 71.5049 75.675 71.4649 76.085C71.4349 76.495 71.4199 76.9 71.4199 77.3C71.4199 77.8 71.5199 78.13 71.7199 78.29C71.9299 78.44 72.2399 78.515 72.6499 78.515ZM79.9326 80.15C79.6926 80.15 79.4976 80.085 79.3476 79.955C79.1976 79.825 79.1226 79.56 79.1226 79.16C79.1226 78.96 79.1426 78.7 79.1826 78.38C79.2226 78.06 79.2626 77.74 79.3026 77.42C79.4126 76.71 79.4926 76.095 79.5426 75.575C79.5926 75.055 79.6176 74.525 79.6176 73.985C79.6176 73.485 79.5876 73.02 79.5276 72.59C79.4776 72.16 79.3426 71.79 79.1226 71.48C79.0426 71.35 79.0026 71.25 79.0026 71.18C79.0026 71.06 79.0676 70.935 79.1976 70.805C79.3376 70.665 79.5026 70.55 79.6926 70.46C79.8926 70.37 80.0776 70.325 80.2476 70.325C80.5576 70.325 80.7626 70.465 80.8626 70.745C80.9726 71.015 81.0276 71.355 81.0276 71.765C81.0276 72.015 81.0126 72.325 80.9826 72.695C80.9526 73.065 80.9176 73.425 80.8776 73.775C80.8476 74.115 80.8176 74.38 80.7876 74.57C80.7176 75.1 80.6626 75.595 80.6226 76.055C80.5826 76.515 80.5626 76.905 80.5626 77.225C80.5626 77.605 80.5976 77.925 80.6676 78.185C80.7476 78.445 80.8826 78.66 81.0726 78.83C81.2026 78.95 81.2676 79.085 81.2676 79.235C81.2676 79.475 81.1426 79.69 80.8926 79.88C80.6526 80.06 80.3326 80.15 79.9326 80.15ZM86.1551 80.195C85.1051 80.195 84.3201 79.92 83.8001 79.37C83.2801 78.81 83.0201 77.935 83.0201 76.745C83.0201 76.545 83.0251 76.335 83.0351 76.115C83.0551 75.895 83.0751 75.68 83.0951 75.47C83.1151 75.27 83.1301 75.07 83.1401 74.87C83.1501 74.67 83.1551 74.49 83.1551 74.33C83.1551 73.73 83.1301 73.21 83.0801 72.77C83.0301 72.33 82.8801 71.91 82.6301 71.51C82.5501 71.38 82.5101 71.275 82.5101 71.195C82.5101 71.065 82.5801 70.94 82.7201 70.82C82.8701 70.69 83.0451 70.58 83.2451 70.49C83.4451 70.4 83.6351 70.355 83.8151 70.355C84.0551 70.355 84.2251 70.435 84.3251 70.595C84.4351 70.755 84.5051 70.955 84.5351 71.195C84.5651 71.425 84.5801 71.66 84.5801 71.9C84.5801 72.15 84.5651 72.425 84.5351 72.725C84.5151 73.025 84.4801 73.35 84.4301 73.7C84.3901 74.08 84.3501 74.48 84.3101 74.9C84.2801 75.31 84.2651 75.725 84.2651 76.145C84.2651 76.725 84.3651 77.19 84.5651 77.54C84.7751 77.88 85.0551 78.13 85.4051 78.29C85.7651 78.44 86.1651 78.515 86.6051 78.515C87.3751 78.515 87.9551 78.32 88.3451 77.93C88.7351 77.53 89.0051 77.01 89.1551 76.37C89.2251 76.08 89.2801 75.75 89.3201 75.38C89.3601 75 89.3801 74.615 89.3801 74.225C89.3801 73.735 89.3451 73.265 89.2751 72.815C89.2151 72.365 89.0901 71.97 88.9001 71.63C88.8601 71.55 88.8251 71.48 88.7951 71.42C88.7651 71.36 88.7501 71.295 88.7501 71.225C88.7501 71.085 88.8101 70.95 88.9301 70.82C89.0501 70.68 89.2001 70.57 89.3801 70.49C89.5601 70.4 89.7451 70.355 89.9351 70.355C90.2551 70.355 90.4701 70.49 90.5801 70.76C90.6901 71.03 90.7451 71.345 90.7451 71.705C90.7451 71.925 90.7251 72.245 90.6851 72.665C90.6551 73.085 90.6101 73.535 90.5501 74.015C90.4901 74.495 90.4301 74.95 90.3701 75.38C90.3101 75.8 90.2551 76.125 90.2051 76.355C89.9551 77.545 89.5151 78.485 88.8851 79.175C88.2551 79.855 87.3451 80.195 86.1551 80.195ZM92.0617 80.15C91.8717 80.15 91.7417 80.095 91.6717 79.985C91.6017 79.875 91.5667 79.755 91.5667 79.625C91.5667 79.005 91.6267 78.295 91.7467 77.495C91.8767 76.695 92.0317 75.9 92.2117 75.11C92.3717 74.44 92.5467 73.815 92.7367 73.235C92.9367 72.655 93.1117 72.18 93.2617 71.81C93.4817 71.29 93.7317 70.895 94.0117 70.625C94.3017 70.345 94.6367 70.205 95.0167 70.205C95.2967 70.205 95.5467 70.3 95.7667 70.49C95.9867 70.67 96.1167 71 96.1567 71.48C96.2167 72.06 96.2867 72.645 96.3667 73.235C96.4467 73.825 96.5367 74.365 96.6367 74.855C96.7367 75.335 96.8417 75.705 96.9517 75.965C97.0417 76.195 97.1717 76.31 97.3417 76.31C97.5317 76.31 97.6967 76.19 97.8367 75.95C97.9667 75.73 98.1067 75.43 98.2567 75.05C98.4067 74.67 98.5517 74.27 98.6917 73.85C98.8417 73.42 98.9717 73.03 99.0817 72.68C99.2117 72.3 99.3567 71.92 99.5167 71.54C99.6867 71.15 99.9017 70.83 100.162 70.58C100.422 70.32 100.747 70.19 101.137 70.19C101.497 70.19 101.752 70.315 101.902 70.565C102.062 70.805 102.142 71.19 102.142 71.72C102.142 72.13 102.127 72.56 102.097 73.01C102.087 73.27 102.072 73.54 102.052 73.82C102.042 74.09 102.037 74.37 102.037 74.66C102.037 75.11 102.057 75.585 102.097 76.085C102.147 76.585 102.237 77.055 102.367 77.495C102.507 77.935 102.712 78.305 102.982 78.605C103.062 78.675 103.132 78.755 103.192 78.845C103.262 78.935 103.297 79.035 103.297 79.145C103.297 79.395 103.162 79.625 102.892 79.835C102.632 80.035 102.332 80.135 101.992 80.135C101.682 80.135 101.452 80.035 101.302 79.835C101.152 79.635 101.032 79.365 100.942 79.025C100.842 78.605 100.772 78.155 100.732 77.675C100.692 77.195 100.672 76.73 100.672 76.28C100.672 75.56 100.697 74.9 100.747 74.3C100.807 73.69 100.837 73.24 100.837 72.95C100.837 72.79 100.822 72.675 100.792 72.605C100.762 72.525 100.687 72.485 100.567 72.485C100.427 72.485 100.307 72.55 100.207 72.68C100.117 72.8 100.042 72.97 99.9817 73.19C99.8517 73.61 99.7067 74.06 99.5467 74.54C99.3867 75.02 99.2167 75.49 99.0367 75.95C98.8667 76.41 98.6817 76.82 98.4817 77.18C98.2517 77.6 98.0017 77.885 97.7317 78.035C97.4717 78.175 97.2067 78.245 96.9367 78.245C96.5167 78.245 96.1967 78.115 95.9767 77.855C95.7667 77.585 95.6117 77.29 95.5117 76.97C95.3817 76.54 95.2617 75.98 95.1517 75.29C95.0417 74.59 94.9617 73.805 94.9117 72.935C94.8917 72.565 94.7717 72.38 94.5517 72.38C94.3117 72.38 94.1217 72.56 93.9817 72.92C93.8617 73.28 93.7467 73.705 93.6367 74.195C93.5267 74.675 93.4367 75.18 93.3667 75.71C93.3067 76.23 93.2767 76.745 93.2767 77.255C93.2767 77.685 93.2917 78.06 93.3217 78.38C93.3617 78.7 93.3817 79 93.3817 79.28C93.3817 79.48 93.3017 79.645 93.1417 79.775C92.9917 79.905 92.8117 80 92.6017 80.06C92.3917 80.12 92.2117 80.15 92.0617 80.15Z" fill="#C6452C"/>
</svg>
