<svg width="50" height="50" viewBox="0 0 100 100" fill="none" xmlns="http://www.w3.org/2000/svg">
<circle cx="50" cy="50" r="50" fill="#99C997"/>
<path d="M31.3629 54.195C30.8729 54.195 30.4179 54.125 29.9979 53.985C29.5879 53.835 29.2579 53.63 29.0079 53.37C28.7579 53.11 28.6329 52.805 28.6329 52.455C28.6329 52.225 28.6879 52.025 28.7979 51.855C28.9079 51.675 29.0579 51.585 29.2479 51.585C29.3679 51.585 29.4929 51.63 29.6229 51.72C29.8729 51.94 30.1929 52.135 30.5829 52.305C30.9829 52.465 31.4079 52.545 31.8579 52.545C32.4479 52.545 32.9279 52.43 33.2979 52.2C33.6779 51.96 33.8679 51.64 33.8679 51.24C33.8679 50.86 33.6929 50.585 33.3429 50.415C32.9929 50.245 32.5079 50.085 31.8879 49.935C31.4279 49.825 30.9829 49.685 30.5529 49.515C30.1329 49.345 29.7829 49.11 29.5029 48.81C29.2329 48.5 29.0979 48.09 29.0979 47.58C29.0979 47.19 29.1829 46.805 29.3529 46.425C29.5229 46.035 29.7729 45.68 30.1029 45.36C30.4329 45.04 30.8329 44.785 31.3029 44.595C31.7729 44.395 32.3029 44.295 32.8929 44.295C33.3329 44.295 33.7329 44.345 34.0929 44.445C34.4629 44.545 34.7529 44.685 34.9629 44.865C35.1829 45.045 35.2929 45.265 35.2929 45.525C35.2929 45.725 35.2379 45.9 35.1279 46.05C35.0179 46.2 34.8879 46.32 34.7379 46.41C34.5879 46.49 34.4579 46.53 34.3479 46.53C34.2479 46.53 34.1129 46.485 33.9429 46.395C33.6629 46.245 33.3479 46.13 32.9979 46.05C32.6579 45.96 32.3579 45.915 32.0979 45.915C31.6079 45.915 31.2079 46.025 30.8979 46.245C30.5979 46.455 30.4479 46.705 30.4479 46.995C30.4479 47.315 30.6379 47.585 31.0179 47.805C31.4079 48.015 32.1029 48.24 33.1029 48.48C33.7829 48.66 34.3129 48.91 34.6929 49.23C35.0729 49.54 35.2629 50.035 35.2629 50.715C35.2629 51.325 35.0979 51.895 34.7679 52.425C34.4479 52.955 33.9929 53.385 33.4029 53.715C32.8229 54.035 32.1429 54.195 31.3629 54.195ZM36.99 54.15C36.8 54.15 36.67 54.095 36.6 53.985C36.53 53.875 36.495 53.755 36.495 53.625C36.495 53.005 36.555 52.295 36.675 51.495C36.805 50.695 36.96 49.9 37.14 49.11C37.3 48.44 37.475 47.815 37.665 47.235C37.865 46.655 38.04 46.18 38.19 45.81C38.41 45.29 38.66 44.895 38.94 44.625C39.23 44.345 39.565 44.205 39.945 44.205C40.225 44.205 40.475 44.3 40.695 44.49C40.915 44.67 41.045 45 41.085 45.48C41.145 46.06 41.215 46.645 41.295 47.235C41.375 47.825 41.465 48.365 41.565 48.855C41.665 49.335 41.77 49.705 41.88 49.965C41.97 50.195 42.1 50.31 42.27 50.31C42.46 50.31 42.625 50.19 42.765 49.95C42.895 49.73 43.035 49.43 43.185 49.05C43.335 48.67 43.48 48.27 43.62 47.85C43.77 47.42 43.9 47.03 44.01 46.68C44.14 46.3 44.285 45.92 44.445 45.54C44.615 45.15 44.83 44.83 45.09 44.58C45.35 44.32 45.675 44.19 46.065 44.19C46.425 44.19 46.68 44.315 46.83 44.565C46.99 44.805 47.07 45.19 47.07 45.72C47.07 46.13 47.055 46.56 47.025 47.01C47.015 47.27 47 47.54 46.98 47.82C46.97 48.09 46.965 48.37 46.965 48.66C46.965 49.11 46.985 49.585 47.025 50.085C47.075 50.585 47.165 51.055 47.295 51.495C47.435 51.935 47.64 52.305 47.91 52.605C47.99 52.675 48.06 52.755 48.12 52.845C48.19 52.935 48.225 53.035 48.225 53.145C48.225 53.395 48.09 53.625 47.82 53.835C47.56 54.035 47.26 54.135 46.92 54.135C46.61 54.135 46.38 54.035 46.23 53.835C46.08 53.635 45.96 53.365 45.87 53.025C45.77 52.605 45.7 52.155 45.66 51.675C45.62 51.195 45.6 50.73 45.6 50.28C45.6 49.56 45.625 48.9 45.675 48.3C45.735 47.69 45.765 47.24 45.765 46.95C45.765 46.79 45.75 46.675 45.72 46.605C45.69 46.525 45.615 46.485 45.495 46.485C45.355 46.485 45.235 46.55 45.135 46.68C45.045 46.8 44.97 46.97 44.91 47.19C44.78 47.61 44.635 48.06 44.475 48.54C44.315 49.02 44.145 49.49 43.965 49.95C43.795 50.41 43.61 50.82 43.41 51.18C43.18 51.6 42.93 51.885 42.66 52.035C42.4 52.175 42.135 52.245 41.865 52.245C41.445 52.245 41.125 52.115 40.905 51.855C40.695 51.585 40.54 51.29 40.44 50.97C40.31 50.54 40.19 49.98 40.08 49.29C39.97 48.59 39.89 47.805 39.84 46.935C39.82 46.565 39.7 46.38 39.48 46.38C39.24 46.38 39.05 46.56 38.91 46.92C38.79 47.28 38.675 47.705 38.565 48.195C38.455 48.675 38.365 49.18 38.295 49.71C38.235 50.23 38.205 50.745 38.205 51.255C38.205 51.685 38.22 52.06 38.25 52.38C38.29 52.7 38.31 53 38.31 53.28C38.31 53.48 38.23 53.645 38.07 53.775C37.92 53.905 37.74 54 37.53 54.06C37.32 54.12 37.14 54.15 36.99 54.15ZM56.333 54.165C56.023 54.165 55.758 54.035 55.538 53.775C55.328 53.505 55.123 53.065 54.923 52.455C54.823 52.155 54.738 51.865 54.668 51.585C54.608 51.295 54.563 51.015 54.533 50.745C54.403 50.945 54.283 51.08 54.173 51.15C54.073 51.21 53.923 51.24 53.723 51.24C53.233 51.24 52.713 51.235 52.163 51.225C51.613 51.205 51.123 51.19 50.693 51.18C50.673 51.36 50.653 51.545 50.633 51.735C50.623 51.915 50.618 52.095 50.618 52.275C50.618 52.435 50.623 52.595 50.633 52.755C50.653 52.915 50.668 53.07 50.678 53.22C50.708 53.5 50.598 53.725 50.348 53.895C50.098 54.065 49.788 54.15 49.418 54.15C49.098 54.15 48.938 54.01 48.938 53.73C48.938 53.56 48.983 53.305 49.073 52.965C49.123 52.735 49.163 52.54 49.193 52.38C49.223 52.21 49.238 52.075 49.238 51.975C49.238 51.695 49.153 51.505 48.983 51.405C48.843 51.325 48.773 51.22 48.773 51.09C48.773 50.97 48.798 50.825 48.848 50.655C48.908 50.485 48.983 50.33 49.073 50.19C49.163 50.04 49.248 49.935 49.328 49.875C49.398 49.835 49.483 49.8 49.583 49.77C49.683 49.74 49.808 49.72 49.958 49.71C50.348 48.59 50.783 47.625 51.263 46.815C51.753 45.995 52.273 45.365 52.823 44.925C53.373 44.475 53.933 44.25 54.503 44.25C54.853 44.25 55.108 44.37 55.268 44.61C55.428 44.84 55.508 45.23 55.508 45.78V46.455C55.508 47.465 55.583 48.395 55.733 49.245C55.883 50.095 56.068 50.785 56.288 51.315C56.508 51.875 56.813 52.335 57.203 52.695C57.323 52.795 57.403 52.885 57.443 52.965C57.483 53.035 57.503 53.11 57.503 53.19C57.503 53.34 57.443 53.49 57.323 53.64C57.213 53.79 57.068 53.915 56.888 54.015C56.708 54.115 56.523 54.165 56.333 54.165ZM51.143 49.62C51.633 49.6 52.063 49.585 52.433 49.575C52.803 49.555 53.113 49.545 53.363 49.545H54.413C54.393 49.265 54.373 48.97 54.353 48.66C54.343 48.35 54.338 48.025 54.338 47.685V46.815C54.338 46.525 54.303 46.335 54.233 46.245C54.173 46.145 54.053 46.095 53.873 46.095C53.383 46.095 52.893 46.415 52.403 47.055C51.913 47.695 51.493 48.55 51.143 49.62ZM61.0825 54.195C60.4025 54.195 59.8775 54.12 59.5075 53.97C59.1375 53.82 58.8825 53.61 58.7425 53.34C58.6025 53.07 58.5325 52.75 58.5325 52.38C58.5325 52.2 58.5475 52 58.5775 51.78C58.6075 51.55 58.6425 51.29 58.6825 51C58.8625 49.9 58.9525 48.925 58.9525 48.075C58.9525 47.515 58.9275 47.04 58.8775 46.65C58.8375 46.25 58.7075 45.87 58.4875 45.51C58.4475 45.45 58.4125 45.39 58.3825 45.33C58.3525 45.26 58.3375 45.205 58.3375 45.165C58.3375 45.045 58.4075 44.92 58.5475 44.79C58.6875 44.66 58.8575 44.55 59.0575 44.46C59.2575 44.37 59.4475 44.325 59.6275 44.325C59.9675 44.325 60.1775 44.46 60.2575 44.73C60.3475 45 60.3925 45.385 60.3925 45.885C60.3925 46.075 60.3725 46.38 60.3325 46.8C60.2925 47.21 60.2325 47.735 60.1525 48.375C60.0725 48.995 60.0125 49.53 59.9725 49.98C59.9325 50.43 59.9125 50.79 59.9125 51.06C59.9125 51.46 59.9575 51.765 60.0475 51.975C60.1475 52.175 60.3075 52.315 60.5275 52.395C60.7475 52.475 61.0575 52.515 61.4575 52.515C61.8875 52.515 62.2975 52.48 62.6875 52.41C63.0775 52.33 63.4575 52.21 63.8275 52.05C63.8775 52.03 63.9225 52.015 63.9625 52.005C64.0025 51.995 64.0375 51.99 64.0675 51.99C64.1575 51.99 64.2425 52.045 64.3225 52.155C64.4025 52.265 64.4425 52.42 64.4425 52.62C64.4425 53.06 64.2025 53.405 63.7225 53.655C63.0825 54.015 62.2025 54.195 61.0825 54.195ZM68.0698 54.195C67.3898 54.195 66.8648 54.12 66.4948 53.97C66.1248 53.82 65.8698 53.61 65.7298 53.34C65.5898 53.07 65.5198 52.75 65.5198 52.38C65.5198 52.2 65.5348 52 65.5648 51.78C65.5948 51.55 65.6298 51.29 65.6698 51C65.8498 49.9 65.9398 48.925 65.9398 48.075C65.9398 47.515 65.9148 47.04 65.8648 46.65C65.8248 46.25 65.6948 45.87 65.4748 45.51C65.4348 45.45 65.3998 45.39 65.3698 45.33C65.3398 45.26 65.3248 45.205 65.3248 45.165C65.3248 45.045 65.3948 44.92 65.5348 44.79C65.6748 44.66 65.8448 44.55 66.0448 44.46C66.2448 44.37 66.4348 44.325 66.6148 44.325C66.9548 44.325 67.1648 44.46 67.2448 44.73C67.3348 45 67.3798 45.385 67.3798 45.885C67.3798 46.075 67.3598 46.38 67.3198 46.8C67.2798 47.21 67.2198 47.735 67.1398 48.375C67.0598 48.995 66.9998 49.53 66.9598 49.98C66.9198 50.43 66.8998 50.79 66.8998 51.06C66.8998 51.46 66.9448 51.765 67.0348 51.975C67.1348 52.175 67.2948 52.315 67.5148 52.395C67.7348 52.475 68.0448 52.515 68.4448 52.515C68.8748 52.515 69.2848 52.48 69.6748 52.41C70.0648 52.33 70.4448 52.21 70.8148 52.05C70.8648 52.03 70.9098 52.015 70.9498 52.005C70.9898 51.995 71.0248 51.99 71.0548 51.99C71.1448 51.99 71.2298 52.045 71.3098 52.155C71.3898 52.265 71.4298 52.42 71.4298 52.62C71.4298 53.06 71.1898 53.405 70.7098 53.655C70.0698 54.015 69.1898 54.195 68.0698 54.195Z" fill="#C6452C"/>
</svg>
